<?xml version="1.0" encoding="UTF-8"?>
<svg xmlns="http://www.w3.org/2000/svg" xmlns:xlink="http://www.w3.org/1999/xlink" width="400px" height="px" viewBox="0 0 400 300" version="1.1">
<defs>
<linearGradient id="linear0" gradientUnits="userSpaceOnUse" x1="-102.120598" y1="-471.710388" x2="-102.120598" y2="-365.878387" gradientTransform="matrix(1.98,0,0,-1.98,402.040009,-684.330078)">
<stop offset="0" style="stop-color:rgb(12.54902%,45.882353%,73.72549%);stop-opacity:1;"/>
<stop offset="1" style="stop-color:rgb(16.078431%,66.666667%,88.235294%);stop-opacity:1;"/>
</linearGradient>
<linearGradient id="linear1" gradientUnits="userSpaceOnUse" x1="-147.090302" y1="-471.710388" x2="-147.090302" y2="-365.878387" gradientTransform="matrix(1.98,0,0,-1.98,402.040009,-684.330078)">
<stop offset="0" style="stop-color:rgb(3.921569%,41.568627%,65.882353%);stop-opacity:1;"/>
<stop offset="1" style="stop-color:rgb(8.627451%,60%,78.431373%);stop-opacity:1;"/>
</linearGradient>
<linearGradient id="linear2" gradientUnits="userSpaceOnUse" x1="-117.173798" y1="-471.710388" x2="-117.173798" y2="-365.878387" gradientTransform="matrix(1.98,0,0,-1.98,402.040009,-684.330078)">
<stop offset="0" style="stop-color:rgb(12.54902%,45.882353%,73.72549%);stop-opacity:1;"/>
<stop offset="1" style="stop-color:rgb(16.078431%,66.666667%,88.235294%);stop-opacity:1;"/>
</linearGradient>
<linearGradient id="linear3" gradientUnits="userSpaceOnUse" x1="-87.164101" y1="-471.710388" x2="-87.164101" y2="-365.878387" gradientTransform="matrix(1.98,0,0,-1.98,402.040009,-684.330078)">
<stop offset="0" style="stop-color:rgb(3.921569%,41.568627%,65.882353%);stop-opacity:1;"/>
<stop offset="1" style="stop-color:rgb(8.627451%,60%,78.431373%);stop-opacity:1;"/>
</linearGradient>
<linearGradient id="linear4" gradientUnits="userSpaceOnUse" x1="-57.245098" y1="-471.710388" x2="-57.245098" y2="-365.878387" gradientTransform="matrix(1.98,0,0,-1.98,402.040009,-684.330078)">
<stop offset="0" style="stop-color:rgb(12.54902%,45.882353%,73.72549%);stop-opacity:1;"/>
<stop offset="1" style="stop-color:rgb(16.078431%,66.666667%,88.235294%);stop-opacity:1;"/>
</linearGradient>
<clipPath id="clip1">
  <path d="M 115 84 L 286 84 L 286 214 L 115 214 Z M 115 84 "/>
</clipPath>
<clipPath id="clip2">
  <path d="M 284.621094 148.746094 C 282.402344 142.449219 283.140625 131.714844 282.03125 130.234375 C 274.996094 120.609375 249.816406 119.128906 238.34375 106.539062 C 240.195312 100.246094 236.121094 95.433594 232.050781 91.359375 C 225.753906 86.917969 217.242188 88.769531 210.574219 90.617188 C 203.171875 89.140625 196.136719 86.175781 188.734375 84.324219 C 172.445312 82.472656 156.152344 93.949219 156.152344 93.949219 C 144.304688 101.355469 126.167969 116.90625 117.28125 125.789062 C 119.503906 126.160156 121.722656 124.3125 124.316406 124.3125 L 141.34375 119.867188 C 134.3125 125.792969 119.503906 135.789062 115.0625 143.933594 C 120.242188 142.082031 131.347656 136.15625 136.902344 135.417969 C 132.089844 139.488281 122.09375 147.632812 118.761719 152.816406 C 119.132812 153.1875 118.761719 153.558594 118.761719 153.925781 C 122.835938 151.703125 132.828125 145.78125 137.644531 145.410156 C 132.832031 150.222656 124.316406 159.851562 122.464844 166.144531 C 126.535156 163.554688 136.902344 158 141.34375 156.515625 C 140.234375 159.109375 138.015625 160.960938 136.53125 163.179688 C 134.3125 166.515625 129.496094 170.585938 129.496094 174.660156 C 133.199219 171.324219 137.644531 168.363281 142.085938 166.144531 C 140.234375 170.214844 136.53125 173.550781 135.421875 178.730469 C 138.382812 175.769531 143.9375 174.285156 147.640625 173.175781 L 147.269531 173.550781 C 146.898438 173.917969 142.828125 176.878906 139.867188 180.210938 C 142.453125 180.210938 140.601562 179.839844 143.9375 180.582031 L 145.789062 180.582031 C 145.046875 180.953125 143.9375 181.691406 142.828125 182.0625 C 141.34375 182.804688 139.492188 183.914062 138.015625 184.65625 C 145.046875 193.539062 153.5625 200.941406 163.558594 205.757812 C 176.515625 212.050781 190.582031 214.273438 205.019531 212.421875 C 205.019531 211.683594 204.652344 210.941406 204.285156 209.832031 C 203.914062 208.722656 203.539062 207.980469 203.539062 206.867188 C 208.355469 197.980469 205.765625 182.433594 218.347656 176.136719 C 226.867188 171.699219 227.605469 169.476562 237.238281 171.324219 C 242.414062 172.4375 253.898438 176.136719 259.074219 175.027344 C 263.890625 172.4375 266.476562 170.957031 270.925781 167.996094 C 276.109375 169.105469 277.960938 168.363281 279.8125 165.773438 C 277.960938 168.363281 283.140625 156.148438 285.367188 151.703125 Z M 284.621094 148.746094 "/>
</clipPath>
<clipPath id="clip3">
  <path d="M 115 84 L 142 84 L 142 214 L 115 214 Z M 115 84 "/>
</clipPath>
<clipPath id="clip4">
  <path d="M 284.621094 148.746094 C 282.402344 142.449219 283.140625 131.714844 282.03125 130.234375 C 274.996094 120.609375 249.816406 119.128906 238.34375 106.539062 C 240.195312 100.246094 236.121094 95.433594 232.050781 91.359375 C 225.753906 86.917969 217.242188 88.769531 210.574219 90.617188 C 203.171875 89.140625 196.136719 86.175781 188.734375 84.324219 C 172.445312 82.472656 156.152344 93.949219 156.152344 93.949219 C 144.304688 101.355469 126.167969 116.90625 117.28125 125.789062 C 119.503906 126.160156 121.722656 124.3125 124.316406 124.3125 L 141.34375 119.867188 C 134.3125 125.792969 119.503906 135.789062 115.0625 143.933594 C 120.242188 142.082031 131.347656 136.15625 136.902344 135.417969 C 132.089844 139.488281 122.09375 147.632812 118.761719 152.816406 C 119.132812 153.1875 118.761719 153.558594 118.761719 153.925781 C 122.835938 151.703125 132.828125 145.78125 137.644531 145.410156 C 132.832031 150.222656 124.316406 159.851562 122.464844 166.144531 C 126.535156 163.554688 136.902344 158 141.34375 156.515625 C 140.234375 159.109375 138.015625 160.960938 136.53125 163.179688 C 134.3125 166.515625 129.496094 170.585938 129.496094 174.660156 C 133.199219 171.324219 137.644531 168.363281 142.085938 166.144531 C 140.234375 170.214844 136.53125 173.550781 135.421875 178.730469 C 138.382812 175.769531 143.9375 174.285156 147.640625 173.175781 L 147.269531 173.550781 C 146.898438 173.917969 142.828125 176.878906 139.867188 180.210938 C 142.453125 180.210938 140.601562 179.839844 143.9375 180.582031 L 145.789062 180.582031 C 145.046875 180.953125 143.9375 181.691406 142.828125 182.0625 C 141.34375 182.804688 139.492188 183.914062 138.015625 184.65625 C 145.046875 193.539062 153.5625 200.941406 163.558594 205.757812 C 176.515625 212.050781 190.582031 214.273438 205.019531 212.421875 C 205.019531 211.683594 204.652344 210.941406 204.285156 209.832031 C 203.914062 208.722656 203.539062 207.980469 203.539062 206.867188 C 208.355469 197.980469 205.765625 182.433594 218.347656 176.136719 C 226.867188 171.699219 227.605469 169.476562 237.238281 171.324219 C 242.414062 172.4375 253.898438 176.136719 259.074219 175.027344 C 263.890625 172.4375 266.476562 170.957031 270.925781 167.996094 C 276.109375 169.105469 277.960938 168.363281 279.8125 165.773438 C 277.960938 168.363281 283.140625 156.148438 285.367188 151.703125 Z M 284.621094 148.746094 "/>
</clipPath>
<clipPath id="clip5">
  <path d="M 140 84 L 201 84 L 201 214 L 140 214 Z M 140 84 "/>
</clipPath>
<clipPath id="clip6">
  <path d="M 284.621094 148.746094 C 282.402344 142.449219 283.140625 131.714844 282.03125 130.234375 C 274.996094 120.609375 249.816406 119.128906 238.34375 106.539062 C 240.195312 100.246094 236.121094 95.433594 232.050781 91.359375 C 225.753906 86.917969 217.242188 88.769531 210.574219 90.617188 C 203.171875 89.140625 196.136719 86.175781 188.734375 84.324219 C 172.445312 82.472656 156.152344 93.949219 156.152344 93.949219 C 144.304688 101.355469 126.167969 116.90625 117.28125 125.789062 C 119.503906 126.160156 121.722656 124.3125 124.316406 124.3125 L 141.34375 119.867188 C 134.3125 125.792969 119.503906 135.789062 115.0625 143.933594 C 120.242188 142.082031 131.347656 136.15625 136.902344 135.417969 C 132.089844 139.488281 122.09375 147.632812 118.761719 152.816406 C 119.132812 153.1875 118.761719 153.558594 118.761719 153.925781 C 122.835938 151.703125 132.828125 145.78125 137.644531 145.410156 C 132.832031 150.222656 124.316406 159.851562 122.464844 166.144531 C 126.535156 163.554688 136.902344 158 141.34375 156.515625 C 140.234375 159.109375 138.015625 160.960938 136.53125 163.179688 C 134.3125 166.515625 129.496094 170.585938 129.496094 174.660156 C 133.199219 171.324219 137.644531 168.363281 142.085938 166.144531 C 140.234375 170.214844 136.53125 173.550781 135.421875 178.730469 C 138.382812 175.769531 143.9375 174.285156 147.640625 173.175781 L 147.269531 173.550781 C 146.898438 173.917969 142.828125 176.878906 139.867188 180.210938 C 142.453125 180.210938 140.601562 179.839844 143.9375 180.582031 L 145.789062 180.582031 C 145.046875 180.953125 143.9375 181.691406 142.828125 182.0625 C 141.34375 182.804688 139.492188 183.914062 138.015625 184.65625 C 145.046875 193.539062 153.5625 200.941406 163.558594 205.757812 C 176.515625 212.050781 190.582031 214.273438 205.019531 212.421875 C 205.019531 211.683594 204.652344 210.941406 204.285156 209.832031 C 203.914062 208.722656 203.539062 207.980469 203.539062 206.867188 C 208.355469 197.980469 205.765625 182.433594 218.347656 176.136719 C 226.867188 171.699219 227.605469 169.476562 237.238281 171.324219 C 242.414062 172.4375 253.898438 176.136719 259.074219 175.027344 C 263.890625 172.4375 266.476562 170.957031 270.925781 167.996094 C 276.109375 169.105469 277.960938 168.363281 279.8125 165.773438 C 277.960938 168.363281 283.140625 156.148438 285.367188 151.703125 Z M 284.621094 148.746094 "/>
</clipPath>
<clipPath id="clip7">
  <path d="M 200 84 L 259 84 L 259 214 L 200 214 Z M 200 84 "/>
</clipPath>
<clipPath id="clip8">
  <path d="M 284.621094 148.746094 C 282.402344 142.449219 283.140625 131.714844 282.03125 130.234375 C 274.996094 120.609375 249.816406 119.128906 238.34375 106.539062 C 240.195312 100.246094 236.121094 95.433594 232.050781 91.359375 C 225.753906 86.917969 217.242188 88.769531 210.574219 90.617188 C 203.171875 89.140625 196.136719 86.175781 188.734375 84.324219 C 172.445312 82.472656 156.152344 93.949219 156.152344 93.949219 C 144.304688 101.355469 126.167969 116.90625 117.28125 125.789062 C 119.503906 126.160156 121.722656 124.3125 124.316406 124.3125 L 141.34375 119.867188 C 134.3125 125.792969 119.503906 135.789062 115.0625 143.933594 C 120.242188 142.082031 131.347656 136.15625 136.902344 135.417969 C 132.089844 139.488281 122.09375 147.632812 118.761719 152.816406 C 119.132812 153.1875 118.761719 153.558594 118.761719 153.925781 C 122.835938 151.703125 132.828125 145.78125 137.644531 145.410156 C 132.832031 150.222656 124.316406 159.851562 122.464844 166.144531 C 126.535156 163.554688 136.902344 158 141.34375 156.515625 C 140.234375 159.109375 138.015625 160.960938 136.53125 163.179688 C 134.3125 166.515625 129.496094 170.585938 129.496094 174.660156 C 133.199219 171.324219 137.644531 168.363281 142.085938 166.144531 C 140.234375 170.214844 136.53125 173.550781 135.421875 178.730469 C 138.382812 175.769531 143.9375 174.285156 147.640625 173.175781 L 147.269531 173.550781 C 146.898438 173.917969 142.828125 176.878906 139.867188 180.210938 C 142.453125 180.210938 140.601562 179.839844 143.9375 180.582031 L 145.789062 180.582031 C 145.046875 180.953125 143.9375 181.691406 142.828125 182.0625 C 141.34375 182.804688 139.492188 183.914062 138.015625 184.65625 C 145.046875 193.539062 153.5625 200.941406 163.558594 205.757812 C 176.515625 212.050781 190.582031 214.273438 205.019531 212.421875 C 205.019531 211.683594 204.652344 210.941406 204.285156 209.832031 C 203.914062 208.722656 203.539062 207.980469 203.539062 206.867188 C 208.355469 197.980469 205.765625 182.433594 218.347656 176.136719 C 226.867188 171.699219 227.605469 169.476562 237.238281 171.324219 C 242.414062 172.4375 253.898438 176.136719 259.074219 175.027344 C 263.890625 172.4375 266.476562 170.957031 270.925781 167.996094 C 276.109375 169.105469 277.960938 168.363281 279.8125 165.773438 C 277.960938 168.363281 283.140625 156.148438 285.367188 151.703125 Z M 284.621094 148.746094 "/>
</clipPath>
<clipPath id="clip9">
  <path d="M 258 84 L 286 84 L 286 214 L 258 214 Z M 258 84 "/>
</clipPath>
<clipPath id="clip10">
  <path d="M 284.621094 148.746094 C 282.402344 142.449219 283.140625 131.714844 282.03125 130.234375 C 274.996094 120.609375 249.816406 119.128906 238.34375 106.539062 C 240.195312 100.246094 236.121094 95.433594 232.050781 91.359375 C 225.753906 86.917969 217.242188 88.769531 210.574219 90.617188 C 203.171875 89.140625 196.136719 86.175781 188.734375 84.324219 C 172.445312 82.472656 156.152344 93.949219 156.152344 93.949219 C 144.304688 101.355469 126.167969 116.90625 117.28125 125.789062 C 119.503906 126.160156 121.722656 124.3125 124.316406 124.3125 L 141.34375 119.867188 C 134.3125 125.792969 119.503906 135.789062 115.0625 143.933594 C 120.242188 142.082031 131.347656 136.15625 136.902344 135.417969 C 132.089844 139.488281 122.09375 147.632812 118.761719 152.816406 C 119.132812 153.1875 118.761719 153.558594 118.761719 153.925781 C 122.835938 151.703125 132.828125 145.78125 137.644531 145.410156 C 132.832031 150.222656 124.316406 159.851562 122.464844 166.144531 C 126.535156 163.554688 136.902344 158 141.34375 156.515625 C 140.234375 159.109375 138.015625 160.960938 136.53125 163.179688 C 134.3125 166.515625 129.496094 170.585938 129.496094 174.660156 C 133.199219 171.324219 137.644531 168.363281 142.085938 166.144531 C 140.234375 170.214844 136.53125 173.550781 135.421875 178.730469 C 138.382812 175.769531 143.9375 174.285156 147.640625 173.175781 L 147.269531 173.550781 C 146.898438 173.917969 142.828125 176.878906 139.867188 180.210938 C 142.453125 180.210938 140.601562 179.839844 143.9375 180.582031 L 145.789062 180.582031 C 145.046875 180.953125 143.9375 181.691406 142.828125 182.0625 C 141.34375 182.804688 139.492188 183.914062 138.015625 184.65625 C 145.046875 193.539062 153.5625 200.941406 163.558594 205.757812 C 176.515625 212.050781 190.582031 214.273438 205.019531 212.421875 C 205.019531 211.683594 204.652344 210.941406 204.285156 209.832031 C 203.914062 208.722656 203.539062 207.980469 203.539062 206.867188 C 208.355469 197.980469 205.765625 182.433594 218.347656 176.136719 C 226.867188 171.699219 227.605469 169.476562 237.238281 171.324219 C 242.414062 172.4375 253.898438 176.136719 259.074219 175.027344 C 263.890625 172.4375 266.476562 170.957031 270.925781 167.996094 C 276.109375 169.105469 277.960938 168.363281 279.8125 165.773438 C 277.960938 168.363281 283.140625 156.148438 285.367188 151.703125 Z M 284.621094 148.746094 "/>
</clipPath>
</defs>
<g id="surface1">
<path style=" stroke:none;fill-rule:nonzero;fill:url(#linear0);" d="M 259.074219 40.269531 L 259.074219 39.898438 L 259.074219 40.269531 L 258.707031 39.898438 L 258.707031 40.269531 L 199.839844 63.59375 L 140.605469 40.269531 L 140.605469 39.898438 L 140.234375 40.269531 L 140.234375 39.898438 L 140.234375 40.269531 L 81 63.964844 L 81 249.445312 L 140.234375 226.859375 L 199.839844 249.445312 L 259.074219 226.859375 L 318.6875 249.445312 L 318.6875 63.964844 Z M 259.074219 40.269531 "/>
<path style=" stroke:none;fill-rule:nonzero;fill:url(#linear1);" d="M 81 63.964844 L 81 249.445312 L 140.605469 226.859375 L 140.605469 39.898438 Z M 81 63.964844 "/>
<path style=" stroke:none;fill-rule:nonzero;fill:url(#linear2);" d="M 199.839844 63.964844 L 199.839844 249.445312 L 140.234375 226.859375 L 140.234375 39.898438 Z M 199.839844 63.964844 "/>
<path style=" stroke:none;fill-rule:nonzero;fill:url(#linear3);" d="M 199.839844 63.964844 L 199.839844 249.445312 L 259.074219 226.859375 L 259.074219 39.898438 Z M 199.839844 63.964844 "/>
<path style=" stroke:none;fill-rule:nonzero;fill:url(#linear4);" d="M 318.6875 63.964844 L 318.6875 249.445312 L 258.707031 226.859375 L 258.707031 39.898438 Z M 318.6875 63.964844 "/>
<g clip-path="url(#clip1)" clip-rule="nonzero">
<g clip-path="url(#clip2)" clip-rule="nonzero">
<path style=" stroke:none;fill-rule:nonzero;fill:rgb(100%,100%,100%);fill-opacity:1;" d="M 199.839844 74.699219 C 260.773438 74.699219 310.167969 108.183594 310.167969 149.484375 C 310.167969 190.789062 260.773438 224.269531 199.839844 224.269531 C 138.914062 224.269531 89.515625 190.789062 89.515625 149.484375 C 89.515625 108.183594 138.914062 74.699219 199.839844 74.699219 Z M 199.839844 74.699219 "/>
</g>
</g>
<g clip-path="url(#clip3)" clip-rule="nonzero">
<g clip-path="url(#clip4)" clip-rule="nonzero">
<path style=" stroke:none;fill-rule:nonzero;fill:rgb(94.901961%,94.901961%,94.901961%);fill-opacity:1;" d="M 82.480469 67.296875 L 82.480469 255 L 141.347656 231.675781 L 141.347656 43.601562 Z M 82.480469 67.296875 "/>
</g>
</g>
<g clip-path="url(#clip5)" clip-rule="nonzero">
<g clip-path="url(#clip6)" clip-rule="nonzero">
<path style=" stroke:none;fill-rule:nonzero;fill:rgb(100%,100%,100%);fill-opacity:1;" d="M 200.214844 67.296875 L 200.214844 255 L 140.976562 231.675781 L 140.976562 43.601562 Z M 200.214844 67.296875 "/>
</g>
</g>
<g clip-path="url(#clip7)" clip-rule="nonzero">
<g clip-path="url(#clip8)" clip-rule="nonzero">
<path style=" stroke:none;fill-rule:nonzero;fill:rgb(94.901961%,94.901961%,94.901961%);fill-opacity:1;" d="M 200.214844 67.296875 L 200.214844 255 L 258.707031 231.675781 L 258.707031 43.601562 Z M 200.214844 67.296875 "/>
</g>
</g>
<g clip-path="url(#clip9)" clip-rule="nonzero">
<g clip-path="url(#clip10)" clip-rule="nonzero">
<path style=" stroke:none;fill-rule:nonzero;fill:rgb(100%,100%,100%);fill-opacity:1;" d="M 317.941406 67.296875 L 317.941406 255 L 258.707031 231.675781 L 258.707031 43.601562 Z M 317.941406 67.296875 "/>
</g>
</g>
</g>
</svg>
